PathFileType	4	(X/Y/Z)	AB13\squats_1.trc
DataRate	CameraRate	NumFrames	NumMarkers	Units	OrigDataRate	OrigDataStartFrame	OrigNumFrames
200.000000	200.000000	4	35	mm	200.000000	79	316
Frame#	Time	C7			LSHO			STRN			LASI			RASI			LPSI			RPSI			LGTR			RGTR			LTHC			LTHL			LTHR			LKNE			LMKNE			LSHC			LSHL			LSHR			LANK			LMANK			LMT1			LMT5			LCAL			RTHC			RTHL			RTHR			RKNE			RSHC			RSHL			RSHR			RANK			RMANK			RMT1			RMT5			RCAL			RMKNE			
		X1	Y1	Z1	X2	Y2	Z2	X3	Y3	Z3	X4	Y4	Z4	X5	Y5	Z5	X6	Y6	Z6	X7	Y7	Z7	X8	Y8	Z8	X9	Y9	Z9	X10	Y10	Z10	X11	Y11	Z11	X12	Y12	Z12	X13	Y13	Z13	X14	Y14	Z14	X15	Y15	Z15	X16	Y16	Z16	X17	Y17	Z17	X18	Y18	Z18	X19	Y19	Z19	X20	Y20	Z20	X21	Y21	Z21	X22	Y22	Z22	X23	Y23	Z23	X24	Y24	Z24	X25	Y25	Z25	X26	Y26	Z26	X27	Y27	Z27	X28	Y28	Z28	X29	Y29	Z29	X30	Y30	Z30	X31	Y31	Z31	X32	Y32	Z32	X33	Y33	Z33	X34	Y34	Z34	X35	Y35	Z35	

80	33.085	-3529.103460225341	1203.996561110272	2479.791438108906	-3606.848766641726	1150.059680479893	2618.181870600183	-3624.896049979626	1056.539602829191	2463.748963921452	-3497.824701747259	716.9306105196575	2594.719707774181	-3490.47735942912	694.383547225063	2324.764225806759	-3289.555380689673	819.9261150981539	2514.515554610096	-3297.004717168081	831.8928520236472	2439.59575043534	-3392.579453878826	732.4691548565453	2673.595727841766	-3378.911805644164	711.4793071185535	2256.686596614207	-3489.318588050981	594.5747200761923	2688.443276655451	-3503.599838558976	442.1709942365194	2606.365661462733	-3566.122500711659	621.25146228578	2620.052616107608	-3644.335268100216	422.0706955261945	2703.259197650267	-3658.65184078179	408.8771754948262	2587.150395156467	-3494.457758751141	226.1922751188217	2707.529885053286	-3574.655076948786	220.6268427223149	2672.411036625289	-3445.865293814937	213.6147757415642	2632.848920277922	-3420.000180367151	100.4658915870826	2689.49534724537	-3458.476070471698	103.8445306455256	2609.830855578258	-3562.17213915669	54.92533789073183	2656.904807586421	-3516.411287901337	48.0867199954462	2734.135450007801	-3360.881295290818	80.92520991951483	2639.366922570204	-3493.742274862686	435.9773237764543	2308.702799892279	-3462.170733475657	595.5666956210986	2241.289932696055	-3568.644236046295	611.1044912771545	2316.445701289069	-3621.283524409161	421.463092672927	2226.391965140141	-3432.853101358459	195.5344162758865	2317.628664929893	-3485.248640997033	223.2055594500074	2239.664536127607	-3570.135186744977	229.5947843861908	2259.890746634003	-3415.222830965429	103.7542515291744	2263.323406607935	-3457.188860003968	100.8750023939488	2339.557855298077	-3557.746224433452	53.27634452711514	2282.205019295161	-3485.71778123967	44.15216585162006	2209.530524164305	-3351.343854681971	72.52380560824363	2315.456256456993	-3651.013230581562	413.3669420551308	2343.570763094831	
81	33.09	-3529.990242207529	1199.41762168167	2479.480573058717	-3607.820848386922	1145.240770867697	2617.861394523515	-3625.436167374436	1051.586304737071	2463.571415220712	-3497.265620866228	713.105314797454	2594.753835153771	-3489.728413319774	690.5431027650091	2324.754902423584	-3289.028998955691	816.2616953449756	2514.604026803021	-3296.494137086649	828.1768457156381	2439.696497399961	-3392.026329381324	729.0992127901156	2673.779839277283	-3378.292940592579	708.2645401724683	2256.505587760773	-3489.177310064104	592.3338234425067	2688.595300077065	-3504.453846437241	440.0239712822804	2606.862242769786	-3565.617622796091	619.4237765832415	2619.922738680713	-3645.472594121064	421.2268406666262	2703.580030978846	-3659.793764599864	408.003830175991	2587.470059787539	-3495.147848626958	225.8808862858923	2707.590641511296	-3575.324152345193	220.0730805239108	2672.443083293845	-3446.498460708251	213.5780831959112	2632.889371761823	-3420.169291295889	100.5450499997914	2689.346603295384	-3458.715520138994	103.8157166314803	2609.712868769032	-3562.266128835376	54.85931910427873	2656.916983599245	-3516.430636041471	48.09435216145666	2734.109194473732	-3361.019228599993	81.05026342448993	2639.119452812668	-3494.523987331588	433.9627436196959	2308.254021502544	-3461.951460893858	593.3339534183525	2241.308636418336	-3568.103350764973	609.4494617408859	2316.846677767826	-3622.335401751534	420.6332806619538	2226.199321022188	-3433.367018100976	195.4777590184127	2317.646919427203	-3485.857504338833	222.9334397167122	2239.628519874043	-3570.768344459644	229.0409456180026	2259.875347723269	-3415.400159615325	103.7742033569538	2263.42245061578	-3457.388292512112	100.7851840253565	2339.639136233765	-3557.822892873632	53.23156947470458	2282.193474219179	-3485.720328697524	44.18771099313744	2209.56479187826	-3351.458192713709	72.63523072562988	2315.566302760388	-3651.981662688428	412.4786532737119	2343.426555503157	
82	33.095	-3530.85224622041	1194.846706151449	2479.170916785838	-3608.746752117849	1140.444675700962	2617.555528898194	-3625.959285129381	1046.653554304755	2463.405611826202	-3496.734736763269	709.2840705551417	2594.777188170571	-3488.975080362267	686.7123380640639	2324.742288298416	-3288.520812570715	812.5986484317956	2514.699010093598	-3295.999464486846	824.4603619069353	2439.804446013472	-3391.504702059876	725.7268936083517	2673.956403353145	-3377.676417231236	705.0503311909982	2256.333538922578	-3489.050548578011	590.0965393514297	2688.73879604108	-3505.302971041307	437.8960989144233	2607.359183981726	-3565.123259696728	617.5874314530802	2619.77677294952	-3646.602984762952	420.3870117168873	2703.878983201836	-3660.917466184487	407.129637165126	2587.765815553935	-3495.83361013374	225.5689125793285	2707.639683924708	-3575.986971596995	219.5235998798323	2672.459371308553	-3447.124229075187	213.5419066298616	2632.923435871461	-3420.340232953841	100.6256539466283	2689.193725507915	-3458.953193157125	103.7832647701913	2609.5905081655	-3562.358508016629	54.79376884394873	2656.923461110612	-3516.450209525018	48.10587065653159	2734.082517733551	-3361.155328855707	81.17657463341766	2638.869550819705	-3495.301668217848	431.952590833083	2307.839285140029	-3461.732829357534	591.095540909405	2241.338540383556	-3567.55941353882	607.7893503032781	2317.256227720228	-3623.373849817086	419.8145573343043	2226.032254111731	-3433.875368011913	195.419276316396	2317.67364151259	-3486.459964525506	222.6688223864981	2239.60069939347	-3571.394362321073	228.4958118156053	2259.874117405254	-3415.5785200535	103.7973460469372	2263.521813686035	-3457.586410790434	100.6935957628342	2339.723387552096	-3557.899207644345	53.18737708536985	2282.181615178356	-3485.724576907444	44.22515806613281	2209.601111880639	-3351.570007918082	72.74685842678167	2315.676890972761	-3652.927729084518	411.5971929080129	2343.310923661583	
83	33.1	-3531.690445223461	1190.285208216648	2478.863665165572	-3609.626884876808	1135.67229977736	2617.265306580024	-3626.466205609653	1041.742375433314	2463.252082620921	-3496.231060740149	705.4684283454221	2594.789861602298	-3488.216634542389	682.8931573212261	2324.728320001198	-3288.030525668674	808.939596162817	2514.799187773964	-3295.519930673685	820.7445125216996	2439.918149989202	-3391.014739729517	722.3588389597181	2674.124969074528	-3377.06145429675	701.8350848734433	2256.172251261346	-3488.937374979123	587.8660134467571	2688.872971986852	-3506.14422681835	435.7886988607408	2607.856745343878	-3564.638155155895	615.7448863627621	2619.61338320279	-3647.725118776468	419.5526118417356	2704.155557776767	-3662.021455973937	406.2556843195954	2588.036463548358	-3496.513642553567	225.257248752157	2707.676661673685	-3576.642425600658	218.9789558409681	2672.460606002709	-3447.741930105317	213.5062729844753	2632.949996293678	-3420.512251256525	100.7073420098912	2689.036980308958	-3459.188759684796	103.7471412794796	2609.463456199518	-3562.449180449713	54.72869877236543	2656.924441499405	-3516.469925395052	48.12154930254636	2734.055621085442	-3361.28926164338	81.30337949526458	2638.618151669095	-3496.075846020085	429.947041106219	2307.458757991048	-3461.513657627278	588.8508004060648	2241.379197114722	-3567.012372891681	606.1246785320781	2317.672138522398	-3624.397994429782	419.0073286191106	2225.888732706607	-3434.378073099326	195.3595937867389	2317.709224239479	-3487.055210070613	222.4119509063433	2239.581543796232	-3572.012690750386	227.9602444888218	2259.88551405997	-3415.757563305344	103.8235534403887	2263.621901677427	-3457.783852007297	100.6007444719241	2339.810795452708	-3557.975493115305	53.14368009845408	2282.169319276436	-3485.730506643024	44.26445969115683	2209.639501105675	-3351.679605237736	72.85882514686291	2315.788672757976	-3653.852339077619	410.7231925744788	2343.221736557835	
